<?xml version="1.0" encoding="utf-8"?>
<!-- Generator: Adobe Illustrator 25.4.5, SVG Export Plug-In . SVG Version: 6.00 Build 0)  -->
<svg version="1.1" id="Layer_1" xmlns="http://www.w3.org/2000/svg" xmlns:xlink="http://www.w3.org/1999/xlink" x="0px" y="0px"
	 viewBox="0 0 651.3 81.4" style="enable-background:new 0 0 651.3 81.4;" xml:space="preserve">
<style type="text/css">
	.st0{fill-rule:evenodd;clip-rule:evenodd;fill:#FFFFFF;}
</style>
<g>
	<path class="st0" d="M109.2,45.5c-8.1-1.9-10.3-3.1-10.3-6c0-3.1,2.6-4.5,7.5-4.5c5.9,0,9.7,2.3,12.2,3.8c1,0.6,1.9,0.3,2.5-0.7
		c0,0,4.4-8.4,4.6-8.6c0.1-0.3,0.5-1.5-0.4-2.2c-4.5-3.3-11.5-5.3-18.8-5.3c-15.1,0-24.1,7.3-24.1,18.8c0,8.9,5.9,13.4,18.4,16.5
		c7.7,1.8,9.7,3.4,9.7,6.4c0,3.3-3.1,4.8-8.1,4.9C95,68.7,91,65.8,88.2,64c-0.7-0.5-1.9-0.3-2.5,0.7c0,0-4.3,8-4.7,8.8
		c-0.4,0.8-0.3,1.7,0.5,2.3c4.9,3.7,12.8,5.9,20.7,5.9c15.5,0.1,25-7.6,25-19C127.1,53.9,121.2,48.4,109.2,45.5z M173.7,66.7
		c-0.2-0.6-1.1-1.6-2.3-1.1c-1.4,0.6-3.3,1-5.6,0.9c-4.7-0.1-7.9-2.1-7.9-8.8V39.1c0-1.1,0.9-2.1,2.1-2.1h11c1.1,0,2.1-0.9,2.1-2.1
		V25c0-1.1-0.9-2.1-2.1-2.1h-11c-1.1,0-2.1-0.9-2.1-2.1V7.1c0-1.1-0.9-2.1-2.1-2.1l-12.5,2.3c-1.1,0-2.1,0.9-2.1,2.1v11.5
		c0,1.1-0.9,2.1-2.1,2.1H133c-1.1,0-2.1,0.9-2.1,2.1V35c0,1.1,0.9,2.1,2.1,2.1h6.1c1.1,0,2.1,0.9,2.1,2.1V59
		c0,14.5,8.9,22.5,22.9,22.5c5.9,0,11.2-2.6,11.2-2.6c1-0.5,1.6-1.8,1.2-2.9C176.7,76,173.9,67.3,173.7,66.7L173.7,66.7z
		 M477.4,45.5c-8.1-1.9-10.3-3.1-10.3-6c0-3.1,2.6-4.5,7.5-4.5c5.9,0,9.7,2.3,12.2,3.8c1,0.6,1.9,0.3,2.5-0.7c0,0,4.4-8.4,4.6-8.6
		c0.2-0.3,0.5-1.5-0.4-2.2C489,24,482,22,474.7,22c-15.1,0-24.1,7.3-24.1,18.8c0,8.9,5.9,13.4,18.4,16.5c7.7,1.8,9.7,3.4,9.7,6.4
		c0,3.3-3.1,4.8-8.1,4.9c-7.4,0.1-11.4-2.8-14.2-4.6c-0.7-0.5-1.9-0.3-2.5,0.7c0,0-4.3,8-4.7,8.8c-0.4,0.8-0.2,1.7,0.5,2.3
		c4.9,3.7,12.8,5.9,20.7,5.9c15.5,0.1,25-7.6,25-19C495.4,53.9,489.5,48.4,477.4,45.5L477.4,45.5z M542,66.7
		c-0.2-0.6-1.1-1.6-2.3-1.1c-1.4,0.6-3.3,1-5.6,0.9c-4.7-0.1-7.9-2.1-7.9-8.8V39.1c0-1.1,0.9-2.1,2.1-2.1h11c1.1,0,2.1-0.9,2.1-2.1
		V25c0-1.1-0.9-2.1-2.1-2.1h-11c-1.1,0-2.1-0.9-2.1-2.1V7.1c0-1.1-0.9-2.1-2.1-2.1l-12.5,2.3c-1.1,0-2.1,0.9-2.1,2.1v11.5
		c0,1.1-0.9,2.1-2.1,2.1h-6.1c-1.1,0-2.1,0.9-2.1,2.1V35c0,1.1,0.9,2.1,2.1,2.1h6.1c1.1,0,2.1,0.9,2.1,2.1V59
		c0,14.5,8.9,22.5,22.9,22.5c5.9,0,11.2-2.6,11.2-2.6c1-0.5,1.6-1.8,1.2-2.9C545,76,542.2,67.3,542,66.7L542,66.7z M214.6,22
		c-3.1,0-8.4,1.5-13.1,6.6c-1.1,1.1-1.6,1.1-1.7,0l-0.5-3.5c-0.2-1.1-1.2-2.1-2.3-2.1h-10.7c-1.1,0-2.1,0.9-2.1,2.1v53.1
		c0,1.1,0.9,2.1,2.1,2.1h12.5c1.1,0,2.1-0.9,2.1-2.1V47c0-3.4,7.2-7.8,12-8.4c1.4-0.2,1.9-0.2,2.2-0.2c1.3-0.2,1.5-1.1,1.5-2.2V23.4
		C216.6,22.3,215.9,22,214.6,22z M649.3,22c-3.1,0-8.4,1.5-13.1,6.6c-1.1,1.1-1.6,1.1-1.7,0l-0.5-3.5c-0.2-1.1-1.2-2.1-2.3-2.1H621
		c-1.1,0-2.1,0.9-2.1,2.1v53.1c0,1.1,0.9,2.1,2.1,2.1h12.5c1.1,0,2.1-0.9,2.1-2.1V47c0-3.4,7.2-7.8,12-8.4c1.4-0.2,1.9-0.2,2.2-0.2
		c1.3-0.2,1.5-1.1,1.5-2.2V23.4C651.3,22.3,650.6,22,649.3,22z M248.7,21.9c-17.1,0-28.8,12.8-28.8,29.9c0,17.2,11.5,29.6,29.5,29.6
		c10.7,0,17.4-3.4,23-8.9c0.9-0.9,0.6-2-0.3-2.7c0,0-7.8-6.3-8.4-6.8s-1.7-0.8-2.6,0.2c-2.9,2.9-6.5,4.5-11.4,4.5
		c-8.2,0-12-4.1-12.9-9.8c-0.2-1,0.2-1.8,1.4-1.8h35.1c1.1,0,2.1-0.9,2.1-2.1v-3.2C275.4,35.2,266.7,21.9,248.7,21.9L248.7,21.9z
		 M257.4,45.7H238c-0.9,0-1.3-0.8-1.2-1.4c0.8-5.7,5.1-9.9,11.4-9.9c6.8,0,9.9,4.8,10.6,9.3C259,45.2,258.6,45.7,257.4,45.7z
		 M337.4,23.2h-10.8c-1.1,0-2.2,0.9-2.4,2.1c0,0-0.3,2.5-0.4,3c-0.1,0.6-0.8,0.8-1.3,0.4c-3.4-3.5-7.7-6.6-15.7-6.6
		c-15.3,0-25.5,12.7-25.5,29.8c0,17.2,10.3,29.5,25.5,29.5c8.7,0,13.6-4.4,15.5-6.1c0.9-0.8,1.4-0.2,1.5,0.9l0.3,2.2
		c0.2,1.1,1.2,2,2.4,2h10.8c1.1,0,2.1-0.9,2.1-2.1v-53C339.5,24.1,338.6,23.2,337.4,23.2z M322.8,58.2c0,1.8-0.6,3.2-1.3,4.1
		c-2.3,3.1-5.6,4.8-10.4,4.8c-7.6,0-12.9-5.9-12.9-15.3c0-9.5,5.1-15.5,12.7-15.5c7.2,0,10.6,5.6,10.6,5.6c0.7,0.9,1.3,2.8,1.3,3.9
		L322.8,58.2L322.8,58.2z M604.1,23.2h-10.8c-1.1,0-2.2,0.9-2.4,2.1c0,0-0.3,2.5-0.4,3c-0.1,0.6-0.8,0.8-1.3,0.4
		c-3.4-3.5-7.7-6.6-15.7-6.6c-15.3,0-25.5,12.7-25.5,29.8c0,17.2,10.3,29.5,25.5,29.5c8.7,0,13.6-4.4,15.5-6.1
		c0.9-0.8,1.4-0.2,1.5,0.9l0.3,2.2c0.2,1.1,1.2,2,2.4,2H604c1.1,0,2.1-0.9,2.1-2.1v-53C606.2,24.1,605.2,23.2,604.1,23.2L604.1,23.2
		z M589.4,58.2c0,1.8-0.6,3.2-1.3,4.1c-2.3,3.1-5.6,4.8-10.4,4.8c-7.6,0-12.9-5.9-12.9-15.3c0-9.5,5.1-15.5,12.7-15.5
		c7.2,0,10.6,5.6,10.6,5.6c0.7,0.9,1.3,2.8,1.3,3.9L589.4,58.2L589.4,58.2z M420.2,21.9c-8.5,0-14.1,3.7-18.3,9.1
		c-0.3,0.3-0.8,0.4-1.1-0.1c-3.5-5.7-9-9-16.7-9c-9.6,0-15,5.9-15,5.9c-0.8,0.8-1.4,0.6-1.5-0.5l-0.3-2.2c-0.1-1.1-1.2-2.1-2.3-2.1
		h-10.8c-1.1,0-2.1,0.9-2.1,2.1v53.1c0,1.1,0.9,2.1,2.1,2.1h12.5c1.1,0,2.1-0.9,2.1-2.1v-34c2.4-3.5,5.6-6.8,10.6-6.8
		c4.7,0,8.7,2.8,8.7,11.5v29.3c0,1.1,0.9,2.1,2.1,2.1h12.5c1.1,0,2.1-0.9,2.1-2.1v-34c2.4-3.6,5.6-6.8,10.6-6.8
		c4.8,0,8.7,3.3,8.7,10.9v29.9c0,1.1,0.9,2.1,2.1,2.1h12.6c1.1,0,2.1-0.9,2.1-2.1V47.3C440.7,31.8,433.5,21.9,420.2,21.9L420.2,21.9
		z"/>
	<path class="st0" d="M45.2,0H15.1C6.8,0,0,6.8,0,15.1v30.1c0,8.3,6.8,15.1,15.1,15.1h30.1c8.3,0,15.1-6.8,15.1-15.1V15.1
		C60.3,6.8,53.5,0,45.2,0z M30.1,45.2c-8.3,0-15.1-6.7-15.1-15.1C15,21.8,21.7,15,30.1,15c8.3,0,15.1,6.7,15.1,15.1
		C45.2,38.4,38.4,45.2,30.1,45.2z"/>
</g>
</svg>
